PathFileType	4	(X/Y/Z)	/Users/itak/Documents/Research/Walk-IL/dataset/trc/00073_00006.trc
DataRate	CameraRate	NumFrames	NumMarkers	Units	OrigDataRate	OrigDataStartFrame	OrigNumFrames
100.000000	100.000000	4	53	mm	100.000000	0	735
Frame#	Time	RPSI			LPSI			L3			STRN			T10			C7			CLAV			RBAK			LBAK			LSHO			LUPA			LAEL			LAOL			LWTS			LWPS			LFRA			LIFD			LHPS			LHTS			RSHO			RUPA			RAEL			RWTS			RWPS			RFRA			RIFD			RHTS			RHPS			RBHD			LFHD			RFHD			LBHD			LHIP			RHIP			RASI			LASI			LKNE			LTHI			LANK			LTIP			LTOE			LMT1			LMT5			LHEE			RKNE			RTHI			RANK			RTIP			RTOE			RMT1			RMT5			RHEE			RAOL			
		X1	Y1	Z1	X2	Y2	Z2	X3	Y3	Z3	X4	Y4	Z4	X5	Y5	Z5	X6	Y6	Z6	X7	Y7	Z7	X8	Y8	Z8	X9	Y9	Z9	X10	Y10	Z10	X11	Y11	Z11	X12	Y12	Z12	X13	Y13	Z13	X14	Y14	Z14	X15	Y15	Z15	X16	Y16	Z16	X17	Y17	Z17	X18	Y18	Z18	X19	Y19	Z19	X20	Y20	Z20	X21	Y21	Z21	X22	Y22	Z22	X23	Y23	Z23	X24	Y24	Z24	X25	Y25	Z25	X26	Y26	Z26	X27	Y27	Z27	X28	Y28	Z28	X29	Y29	Z29	X30	Y30	Z30	X31	Y31	Z31	X32	Y32	Z32	X33	Y33	Z33	X34	Y34	Z34	X35	Y35	Z35	X36	Y36	Z36	X37	Y37	Z37	X38	Y38	Z38	X39	Y39	Z39	X40	Y40	Z40	X41	Y41	Z41	X42	Y42	Z42	X43	Y43	Z43	X44	Y44	Z44	X45	Y45	Z45	X46	Y46	Z46	X47	Y47	Z47	X48	Y48	Z48	X49	Y49	Z49	X50	Y50	Z50	X51	Y51	Z51	X52	Y52	Z52	X53	Y53	Z53	

1	0	311.756103515625	1033.415405273438	1005.1259765625	327.8647155761719	1032.318725585938	1180.13818359375	316.2651062011719	1082.012329101562	1099.489990234375	79.74280548095703	1286.811157226562	1098.57568359375	343.389404296875	1214.678344726562	1103.7890625	293.3096923828125	1483.2392578125	1102.0146484375	112.5241241455078	1400.529418945312	1098.287475585938	352.1126708984375	1341.62109375	1029.96484375	313.3076782226562	1447.415283203125	1203.702270507812	208.8708953857422	1457.092529296875	1274.8857421875	218.37939453125	1330.214599609375	1354.323974609375	184.3796844482422	1115.949462890625	1373.473388671875	249.4904632568359	1097.199951171875	1290.76220703125	70.14976501464844	889.2766723632812	1298.226928710938	124.0515441894531	869.8511352539062	1358.39404296875	151.9464416503906	1008.841735839844	1376.981201171875	37.26058578491211	710.9974975585938	1267.988159179688	80.31787109375	793.4490966796875	1348.724975585938	34.45998382568359	812.5149536132812	1298.488037109375	230.5743560791016	1443.754150390625	925.4502563476562	239.4779052734375	1372.069946289062	863.7402954101562	252.6022033691406	1102.80224609375	847.5723266601562	90.66087341308594	864.7703247070312	897.9073486328125	159.6542205810547	841.140625	849.8251342773438	233.7521057128906	1023.34375	845.2925415039062	68.12940979003906	690.77294921875	940.03369140625	58.797119140625	764.5586547851562	904.34619140625	115.9294204711914	754.0042114257812	851.9864501953125	250.914306640625	1664.72705078125	1161.9912109375	102.0446014404297	1696.619262695312	1009.322448730469	80.96085357666016	1711.14697265625	1132.36376953125	263.8516235351562	1642.72412109375	1026.733764648438	228.5309143066406	966.471923828125	1272.595703125	242.677001953125	963.3220825195312	930.9141235351562	119.1399765014648	978.0006103515625	955.9906616210938	113.6584930419922	973.8189086914062	1225.664184570312	185.3954010009766	500.4644165039062	1233.090209960938	209.796875	644.5318603515625	1267.874877929688	266.23388671875	48.7868537902832	1249.799438476562	234.8185272216797	268.4253845214844	1256.507202148438	59.68307113647461	44.88525772094727	1251.210083007812	106.6827011108398	44.63974761962891	1195.464233398438	165.1167297363281	40.95201873779297	1291.998779296875	315.3892822265625	44.67182159423828	1172.05810546875	192.4123382568359	515.0944213867188	952.3427124023438	169.4567108154297	786.0662231445312	922.457275390625	270.8676147460938	43.22160339355469	955.7775268554688	217.0882110595703	398.0172119140625	945.2514038085938	55.25640869140625	40.80471420288086	993.753173828125	116.3006210327148	44.20121002197266	1033.168579101562	146.6140747070312	46.62468719482422	940.5851440429688	318.3928833007812	42.83304214477539	1012.711303710938	234.6789703369141	1087.838012695312	944.52685546875	
2	0.01	311.6853637695312	1033.407348632812	1005.145812988281	327.7966003417969	1032.326538085938	1180.156372070312	316.1953125	1082.011596679688	1099.504760742188	79.57173919677734	1286.804809570312	1098.437133789062	343.3286437988281	1214.683715820312	1103.772216796875	293.2460327148438	1483.239990234375	1101.96923828125	112.3973922729492	1400.530151367188	1098.196411132812	352.0797119140625	1341.62109375	1029.94091796875	313.166015625	1447.429931640625	1203.662353515625	208.7215270996094	1457.100341796875	1274.782348632812	218.2119750976562	1330.230834960938	1354.275634765625	184.1731109619141	1116.000854492188	1373.464965820312	249.159423828125	1097.21044921875	1290.772827148438	69.83681488037109	889.3514404296875	1298.3525390625	123.7683563232422	869.9006958007812	1358.471923828125	151.6636657714844	1008.890686035156	1377.024169921875	36.84043884277344	711.0816040039062	1268.149658203125	79.99350738525391	793.8529663085938	1349.0654296875	34.12004852294922	812.5631713867188	1298.635986328125	230.5242309570312	1443.72705078125	925.4003295898438	239.4288024902344	1372.038696289062	863.7003173828125	252.5739288330078	1102.766479492188	847.5974731445312	90.91485595703125	864.587158203125	897.917236328125	159.9164428710938	841.037109375	849.7763061523438	233.7760772705078	1023.330932617188	845.3123168945312	68.54981994628906	690.6512451171875	939.7117309570312	59.07233047485352	764.3431396484375	904.2523803710938	116.3073883056641	753.8792724609375	851.9299926757812	250.8834381103516	1664.732788085938	1161.914428710938	102.0167083740234	1696.631591796875	1009.221130371094	80.98843383789062	1711.214233398438	1132.289794921875	263.8547058105469	1642.702880859375	1026.663330078125	228.3894958496094	966.4650268554688	1272.584106445312	242.6604919433594	963.3203125	930.8981323242188	119.129524230957	977.9940795898438	955.9595947265625	113.5586318969727	973.8006591796875	1225.644897460938	185.3385772705078	500.4473876953125	1233.074584960938	209.7232055664062	644.5321044921875	1267.843017578125	266.23388671875	48.78939056396484	1249.794799804688	234.7892303466797	268.4261779785156	1256.493896484375	59.67905807495117	44.88553619384766	1251.20654296875	106.6781845092773	44.64261245727539	1195.46728515625	165.1220245361328	40.95235824584961	1291.998779296875	315.3856811523438	44.67262649536133	1172.053588867188	192.3957214355469	515.1041259765625	952.3171997070312	169.4593658447266	786.06494140625	922.42529296875	270.8671264648438	43.22243499755859	955.775146484375	217.0730590820312	398.0187377929688	945.2442016601562	55.24539947509766	40.79316711425781	993.767578125	116.3001251220703	44.20078659057617	1033.169555664062	146.6138458251953	46.62605285644531	940.5888061523438	318.3878784179688	42.82978820800781	1012.715087890625	234.6599578857422	1087.81298828125	944.5429077148438	
3	0.02	311.5952453613281	1033.40185546875	1005.168640136719	327.7057189941406	1032.336547851562	1180.17822265625	316.1114807128906	1082.006713867188	1099.519409179688	79.37010192871094	1286.796508789062	1098.273681640625	343.2549438476562	1214.688842773438	1103.747314453125	293.1527404785156	1483.240112304688	1101.907836914062	112.2358551025391	1400.528564453125	1098.081909179688	352.03271484375	1341.6181640625	1029.908935546875	312.9820251464844	1447.447509765625	1203.61083984375	208.5385589599609	1457.109252929688	1274.658813476562	218.0195770263672	1330.246704101562	1354.215576171875	183.9068908691406	1116.0576171875	1373.451904296875	248.7624664306641	1097.2236328125	1290.773071289062	69.49147796630859	889.4108276367188	1298.508056640625	123.459831237793	869.9571533203125	1358.578247070312	151.3479766845703	1008.944152832031	1377.076049804688	36.38507843017578	711.146240234375	1268.374389648438	79.62881469726562	794.244384765625	1349.457153320312	33.7337760925293	812.6011962890625	1298.8330078125	230.4552154541016	1443.69384765625	925.3348388671875	239.3673858642578	1372.000854492188	863.6469116210938	252.5412139892578	1102.72509765625	847.6229248046875	91.26290130615234	864.342529296875	897.9194946289062	160.2640075683594	840.9087524414062	849.70263671875	233.8103332519531	1023.317077636719	845.331298828125	69.10405731201172	690.4530639648438	939.3417358398438	59.45919036865234	764.0517578125	904.1227416992188	116.8023376464844	753.7010498046875	851.8296508789062	250.8464508056641	1664.735107421875	1161.814575195312	101.9860153198242	1696.651733398438	1009.0888671875	81.01548767089844	1711.291137695312	1132.202026367188	263.8619995117188	1642.670776367188	1026.573608398438	228.2108154296875	966.4547119140625	1272.570190429688	242.6353607177734	963.3200073242188	930.8778076171875	119.1086578369141	977.98193359375	955.916748046875	113.4251708984375	973.7763061523438	1225.607666015625	185.2726440429688	500.4277038574219	1233.0556640625	209.6244201660156	644.53173828125	1267.807006835938	266.234130859375	48.79106140136719	1249.790283203125	234.7533721923828	268.4279174804688	1256.477416992188	59.6755256652832	44.88622283935547	1251.203369140625	106.6736907958984	44.64596176147461	1195.47119140625	165.1266937255859	40.95270538330078	1291.997802734375	315.3822326660156	44.6727180480957	1172.048583984375	192.3800811767578	515.1109008789062	952.2879028320312	169.4620819091797	786.0634765625	922.3845825195312	270.8663635253906	43.22407150268555	955.7721557617188	217.0592498779297	398.0212097167969	945.2327880859375	55.23136138916016	40.77816390991211	993.7849731445312	116.2997512817383	44.2001953125	1033.170288085938	146.6132965087891	46.62729263305664	940.5936889648438	318.3811340332031	42.82868194580078	1012.720825195312	234.638916015625	1087.783813476562	944.5595703125	
4	0.03	311.4904174804688	1033.401123046875	1005.192443847656	327.5917663574219	1032.348510742188	1180.202026367188	316.0168762207031	1081.995727539062	1099.531860351562	79.15337371826172	1286.785888671875	1098.09716796875	343.17236328125	1214.693115234375	1103.714111328125	293.0267333984375	1483.239990234375	1101.830932617188	112.0452423095703	1400.523559570312	1097.947998046875	351.9697875976562	1341.611083984375	1029.869506835938	312.7609252929688	1447.466430664062	1203.549438476562	208.3307952880859	1457.1181640625	1274.523315429688	217.8148651123047	1330.260131835938	1354.146118164062	183.5910034179688	1116.114624023438	1373.433715820312	248.3291625976562	1097.2392578125	1290.757202148438	69.148193359375	889.4369506835938	1298.687866210938	123.1611938476562	870.01416015625	1358.713745117188	151.0304565429688	1008.996948242188	1377.134643554688	35.95406723022461	711.1705322265625	1268.665283203125	79.26844787597656	794.5512084960938	1349.86474609375	33.3423957824707	812.6146240234375	1299.077392578125	230.3673706054688	1443.656616210938	925.2547607421875	239.295654296875	1371.958740234375	863.5803833007812	252.5067138671875	1102.681640625	847.6448364257812	91.70402526855469	864.0399169921875	897.90771484375	160.6921691894531	840.761474609375	849.6004028320312	233.8561553955078	1023.303833007812	845.3460693359375	69.7860107421875	690.1603393554688	938.9656982421875	59.96208190917969	763.6851806640625	903.95556640625	117.404426574707	753.4701538085938	851.6770629882812	250.8052673339844	1664.731689453125	1161.694213867188	101.9563446044922	1696.681030273438	1008.928771972656	81.0374755859375	1711.371948242188	1132.10546875	263.8746337890625	1642.626831054688	1026.467651367188	228.0051116943359	966.4413452148438	1272.554809570312	242.6009674072266	963.321533203125	930.8536987304688	119.0744857788086	977.9631958007812	955.861083984375	113.2592315673828	973.7463989257812	1225.5478515625	185.2027435302734	500.4063110351562	1233.0341796875	209.5028533935547	644.5304565429688	1267.770141601562	266.2349243164062	48.79140472412109	1249.786254882812	234.7125244140625	268.4306030273438	1256.45849609375	59.67292022705078	44.88732147216797	1251.200927734375	106.6701812744141	44.64940643310547	1195.474853515625	165.1298980712891	40.95296096801758	1291.99560546875	315.3793334960938	44.67169570922852	1172.04345703125	192.3697662353516	515.113037109375	952.2566528320312	169.4655456542969	786.0618896484375	922.3358154296875	270.8654479980469	43.22633743286133	955.7688598632812	217.0505981445312	398.0250244140625	945.2162475585938	55.21495056152344	40.76081085205078	993.804931640625	116.2995529174805	44.19945526123047	1033.170776367188	146.6128845214844	46.62794494628906	940.599365234375	318.3733520507812	42.83066558837891	1012.728149414062	234.6179656982422	1087.752563476562	944.5736083984375	
